<?xml version="1.0" encoding="utf-8"?>
<!-- Generator: Adobe Illustrator 24.1.2, SVG Export Plug-In . SVG Version: 6.00 Build 0)  -->
<svg version="1.1" id="Capa_1" xmlns="http://www.w3.org/2000/svg" xmlns:xlink="http://www.w3.org/1999/xlink" x="0px" y="0px"
	 viewBox="0 0 47 47" style="enable-background:new 0 0 47 47;" xml:space="preserve">
<style type="text/css">
	.st0{fill:#000000;}
</style>
<g>
	<g id="Layer_1_155_">
		<g>
			<path class="st0" d="M26.2,8.4h-16C9,8.4,8,9.3,8,10.5s1,2.1,2.1,2.1h16c1.2,0,2.1-1,2.1-2.1C28.3,9.3,27.4,8.4,26.2,8.4z"/>
			<path class="st0" d="M28.3,18.5c0-1.2-1-2.1-2.1-2.1h-16c-1.2,0-2.1,1-2.1,2.1c0,1.2,1,2.1,2.1,2.1h16
				C27.4,20.7,28.3,19.7,28.3,18.5z"/>
			<path class="st0" d="M18.2,28.7c1.2,0,2.1-1,2.1-2.1c0-1.2-1-2.1-2.1-2.1h-8c-1.2,0-2.1,1-2.1,2.1s1,2.1,2.1,2.1H18.2z"/>
			<path class="st0" d="M34.3,35.9l-2.2,1.5v5.3H4.3V4.3h27.8v8.4l4.3-7.4V2.1c0-1.2-1-2.1-2.1-2.1h-32C1,0,0,1,0,2.1v42.7
				C0,46,1,47,2.2,47h32c1.2,0,2.1-1,2.1-2.1V33.1l-1,1.8C35.1,35.3,34.7,35.7,34.3,35.9z"/>
			<path class="st0" d="M46.9,9.9c0-0.2-0.5-1.9-3.2-3.5c-2.7-1.6-4.4-1.1-4.6-1c-0.3,0.1-0.5,0.3-0.6,0.5L25.1,29
				c-0.1,0.1-0.1,0.3-0.1,0.5l-0.5,8.3c0,0.4,0.2,0.8,0.5,1c0.4,0.2,0.8,0.2,1.1,0l7-4.6c0.1-0.1,0.3-0.2,0.3-0.4l13.4-23.1
				C47,10.4,47,10.2,46.9,9.9z M28.9,35.1c-0.4-0.3-0.8-0.6-1.2-0.8c-0.4-0.3-0.9-0.5-1.3-0.6l0.1-2.5c0.6,0.1,1.4,0.3,2.4,0.9
				c1,0.6,1.7,1.2,2,1.7L28.9,35.1z"/>
			<path class="st0" d="M14.9,38.5c0.1,0.4,0.6,0.6,0.9,0.7c0.3,0.1,0.7-0.1,1-0.3c1.6-0.8,3.8,0.1,5.6,0.1c1,0,1-1.6,0-1.6
				c-2,0-3.7-0.5-5.7-0.2c0-0.1,0-0.3-0.2-0.5c-0.4-0.6-0.9-0.8-1.3-0.8c0-0.1-0.1-0.2-0.1-0.2c-0.1-0.2-0.3-0.3-0.5-0.4
				c0.6-1,0.9-2,0.6-2.9c-0.1-0.3-0.4-0.4-0.7-0.4c-1.1,0-2,1.1-2.7,1.8C10,35.7,8.5,37.6,7,39.5c-0.6,0.8,0.8,1.6,1.4,0.8
				c1.3-1.7,2.7-3.3,4.2-4.9c-0.4,0.6-0.7,1.2-1.1,1.7c-0.6,0.9,0.8,1.6,1.4,0.8c0.1-0.2,0.3-0.4,0.5-0.5c0,0.1-0.1,0.2-0.1,0.3
				c0,0,0,0,0,0c0,0.1-0.1,0.1-0.1,0.2c-0.4,0.9,1,1.3,1.5,0.6c0.1-0.2,0.2-0.4,0.3-0.6C14.9,38.2,14.9,38.4,14.9,38.5z"/>
		</g>
	</g>
</g>
</svg>
