<?xml version="1.0" encoding="utf-8"?>
<!-- Generator: Adobe Illustrator 23.0.3, SVG Export Plug-In . SVG Version: 6.00 Build 0)  -->
<svg version="1.1" id="Layer_1" xmlns="http://www.w3.org/2000/svg" xmlns:xlink="http://www.w3.org/1999/xlink" x="0px" y="0px"
	 viewBox="0 0 16 16" style="enable-background:new 0 0 16 16;" xml:space="preserve">
<path d="M6.4,0.5c-1.8,0-3.2,1.5-3.2,3.2s1.5,3.2,3.2,3.2s3.2-1.5,3.2-3.2S8.2,0.5,6.4,0.5z M6.4,6.9c-3,0-5.4,2.4-5.4,5.4h1.1
	C2.1,9.9,4,8,6.4,8c0.5,0,1,0.1,1.5,0.3c0.3-0.3,0.6-0.5,1-0.7C8.1,7.2,7.3,6.9,6.4,6.9z M6.4,1.5c1.2,0,2.2,1,2.2,2.2
	s-1,2.2-2.2,2.2s-2.2-1-2.2-2.2S5.2,1.5,6.4,1.5z M10.7,8v1.1C10.4,9.2,10,9.3,9.8,9.5L8.9,8.7L8.2,9.5L9,10.3
	c-0.2,0.3-0.3,0.6-0.4,0.9H7.5v1.1h1.1v0C8.7,12.7,8.8,13,9,13.2l-0.8,0.8l0.8,0.8L9.8,14c0.3,0.2,0.6,0.3,0.9,0.4v1.1h1.1v-1.1h0
	c0.3-0.1,0.7-0.2,0.9-0.4l0.8,0.8l0.8-0.8l-0.8-0.8c0.2-0.3,0.3-0.6,0.4-0.9H15v-1.1h-1.1v0c-0.1-0.3-0.2-0.7-0.4-0.9l0.8-0.8
	l-0.8-0.8l-0.8,0.8c-0.3-0.2-0.6-0.3-0.9-0.4V8H10.7z M11.2,10.2c0.9,0,1.6,0.7,1.6,1.6s-0.7,1.6-1.6,1.6s-1.6-0.7-1.6-1.6
	S10.3,10.2,11.2,10.2z"/>
</svg>
