<?xml version="1.0" encoding="utf-8"?>
<!-- Generator: Adobe Illustrator 24.1.2, SVG Export Plug-In . SVG Version: 6.00 Build 0)  -->
<svg version="1.1" id="Layer_1" xmlns="http://www.w3.org/2000/svg" xmlns:xlink="http://www.w3.org/1999/xlink" x="0px" y="0px"
	 viewBox="0 0 70 70" style="enable-background:new 0 0 70 70;" xml:space="preserve">
<style type="text/css">
	.st0{fill:#FFFFFF;}
</style>
<g>
	<path class="st0" d="M30.9,61.8c0,1.7,1.3,3,3,3h27.4c1.7,0,3-1.3,3-3V33.7c0-1.7-1.3-3-3-3H33.9c-1.7,0-3,1.3-3,3
		C30.9,33.7,30.9,61.8,30.9,61.8z"/>
	<path class="st0" d="M28.2,31.1c0-1.7,1.3-3,3-3h20.6V21c0-1.7-1.3-3-3-3H21.4c-1.7,0-3,1.3-3,3v28.1c0,1.7,1.3,3,3,3h6.9
		L28.2,31.1L28.2,31.1z"/>
	<path class="st0" d="M15.9,18.4c0-1.7,1.3-3,3-3h20.6V8.3c0-1.7-1.3-3-3-3H9c-1.7,0-3,1.3-3,3v28.1c0,1.7,1.3,3,3,3h6.9V18.4z"/>
</g>
</svg>
