<?xml version="1.0" encoding="utf-8"?>
<!-- Generator: Adobe Illustrator 26.5.3, SVG Export Plug-In . SVG Version: 6.00 Build 0)  -->
<svg version="1.1" id="Layer_1" xmlns="http://www.w3.org/2000/svg" xmlns:xlink="http://www.w3.org/1999/xlink" x="0px" y="0px"
	 viewBox="0 0 800 800" style="enable-background:new 0 0 800 800;" xml:space="preserve">
<style type="text/css">
	.st0{fill:#09BBD8;}
</style>
<path class="st0" d="M231.3,195.3c-3.4,0-6.3,2.8-6.3,6.3v37.5c0,3.4,2.8,6.3,6.3,6.3h300c3.4,0,6.3-2.8,6.3-6.3v-37.5
	c0-3.4-2.8-6.3-6.3-6.3H231.3z M375,307.8H231.3c-3.4,0-6.3,2.8-6.3,6.3v37.5c0,3.4,2.8,6.3,6.3,6.3H375c3.4,0,6.3-2.8,6.3-6.3
	v-37.5C381.3,310.6,378.4,307.8,375,307.8z M337.5,665.6h-175v-550H600v250c0,3.4,2.8,6.3,6.3,6.3H650c3.4,0,6.3-2.8,6.3-6.3V84.4
	c0-13.8-11.2-25-25-25h-500c-13.8,0-25,11.2-25,25v612.5c0,13.8,11.2,25,25,25h206.3c3.4,0,6.3-2.8,6.3-6.3v-43.8
	C343.8,668.4,340.9,665.6,337.5,665.6z M681.3,596.9H568.8v-28.6c36.2-10.8,62.5-44.2,62.5-83.9c0-48.4-39.1-87.5-87.5-87.5
	s-87.5,39.1-87.5,87.5c0,39.6,26.3,73.1,62.5,83.9v28.6H406.3c-6.9,0-12.5,5.6-12.5,12.5v118.8c0,6.9,5.6,12.5,12.5,12.5h275
	c6.9,0,12.5-5.6,12.5-12.5V609.4C693.8,602.5,688.1,596.9,681.3,596.9z M504.7,484.4c0-21.6,17.5-39.1,39.1-39.1
	s39.1,17.5,39.1,39.1c0,21.6-17.5,39.1-39.1,39.1S504.7,505.9,504.7,484.4z M645.3,692.2H442.2v-46.9h203.1V692.2z"/>
</svg>
