<?xml version="1.0" encoding="utf-8"?>
<!-- Generator: Adobe Illustrator 26.5.3, SVG Export Plug-In . SVG Version: 6.00 Build 0)  -->
<svg version="1.1" id="Layer_1" xmlns="http://www.w3.org/2000/svg" xmlns:xlink="http://www.w3.org/1999/xlink" x="0px" y="0px"
	 viewBox="0 0 122.9 112.1" style="enable-background:new 0 0 122.9 112.1;" xml:space="preserve">
<style type="text/css">
	.st0{fill-rule:evenodd;clip-rule:evenodd;fill:#09BBD8;}
</style>
<path class="st0" d="M46.4,70.6c-3.2-2.8-5.6-4.8-6.2-10.6h-0.3c-0.8,0-1.5-0.2-2.2-0.6c-1.1-0.7-2-1.8-2.5-3
	c-1.1-2.6-2-9.5,0.8-11.4l-0.5-0.4l-0.1-0.8c-0.1-1.4-0.1-3-0.2-4.8c-0.1-6.5-0.2-14.3-5.4-15.8l-2.2-0.7l1.5-1.8
	c3.8-4.9,8.2-9.3,13-13.2c4.9-3.9,10-6.5,15-7.3c5.2-0.9,10.6,0.6,14.6,4.1c1.4,1.2,2.7,2.5,3.9,3.9c4.7,0.5,8.9,3,11.7,6.8
	c1.7,2.3,3,4.9,3.8,7.7c0.8,2.8,1.2,5.8,1,8.7c-0.2,5.3-2.3,10.4-6.1,14.1c0.7,0,1.3,0.2,1.9,0.5c2.2,1.2,2.2,3.7,1.7,5.8
	c-0.6,1.8-1.3,3.8-2,5.5c-0.8,2.3-2,2.7-4.3,2.5c-0.1,5.7-2.8,7.3-6.3,10.7C77.1,79.2,46.1,78.2,46.4,70.6L46.4,70.6z M44.8,77.7
	l9.2,24.2l4.6-13.2l-2.3-2.5c-1.7-2.5-1.1-5.3,2-5.8c1.1-0.1,2.3-0.1,3.4-0.1c1.3-0.1,2.5,0,3.8,0.2c2.9,0.6,3.3,3.5,1.8,5.8
	l-2.3,2.5l4.6,13.2l8.3-24.2c6,5.4,27.2,6.5,33.8,10.2c9.2,5.1,8.9,15.1,10.9,24.3H0c2-9.1,1.8-19.2,10.9-24.3
	C19.1,83.3,38.1,83.7,44.8,77.7z"/>
</svg>
