<?xml version="1.0" encoding="utf-8"?>
<!-- Generator: Adobe Illustrator 26.5.3, SVG Export Plug-In . SVG Version: 6.00 Build 0)  -->
<svg version="1.1" id="Layer_1" xmlns="http://www.w3.org/2000/svg" xmlns:xlink="http://www.w3.org/1999/xlink" x="0px" y="0px"
	 viewBox="0 0 800 800" style="enable-background:new 0 0 800 800;" xml:space="preserve">
<style type="text/css">
	.st0{fill:#005F93;}
</style>
<path class="st0" d="M710.5,403.3c0,171.5-139,310.5-310.5,310.5S89.5,574.7,89.5,403.3c0-171.5,139-310.5,310.5-310.5
	C571.4,92.8,710.4,231.7,710.5,403.3C710.5,403.2,710.5,403.2,710.5,403.3z M520.5,472c0-21.3-7.8-41.9-21.8-57.9l0-0.1
	c-9.3-10.6-20.4-19.4-32.7-26.1l-0.1-0.1c-10.7-5.6-22.1-9.7-34-12.3h-0.1c-10.2-2.2-20.7-3.3-31.2-3.3c-6.2,0-12.5-0.4-18.6-1.5
	c-6.7-1.1-13.2-3.2-19.4-6.2l-0.1,0c-5.6-2.9-10.6-6.8-14.5-11.7l0,0c-4.1-4.8-6.5-10.9-6.9-17.3c0.6-10.6,6.9-20.1,16.5-24.7
	c13.2-7.7,28.2-11.8,43.5-11.6c5.2,0.4,10.3,1.3,15.3,2.6l1.9,0.4c6.4,1.5,12.6,3.7,18.5,6.5c5.5,2.5,10.6,6,14.9,10.2
	c11.6,12.6,31.2,13.5,43.9,1.9c12.6-11.6,13.5-31.2,1.9-43.9c-0.6-0.7-1.2-1.3-1.9-1.9c-9.7-9.6-20.9-17.3-33.3-22.9
	c-9.9-4.6-20.2-8.1-30.8-10.5h0l-0.3-0.1v-30.8c0.6-17.1-12.8-31.5-29.9-32.1s-31.5,12.8-32.1,29.9c0,0.7,0,1.5,0,2.2v29.9
	c-15.8,3.3-30.9,9.3-44.7,17.8c-27.6,16-44.8,45.3-45.5,77.1c0.2,20.6,7.6,40.6,20.7,56.5c9.6,11.8,21.5,21.3,35.1,28.1
	c11.7,5.8,24.1,9.8,36.9,12c9.5,1.6,19.2,2.4,28.9,2.3c6.1,0,12.1,0.6,18,1.8c6.4,1.4,12.5,3.6,18.3,6.6c5.7,3.1,10.7,7.2,15,12.1
	c4.1,4.7,6.4,10.8,6.5,17.1c0,3.8,0,12.7-15.1,22.5c-13.4,8.1-28.7,12.3-44.4,12.3c-6.5-0.3-13-1.1-19.4-2.4
	c-6.2-1.3-12.2-3.3-18-5.8h0c-5.4-2.4-10.2-6.1-14-10.7c-11-13.2-30.6-14.9-43.7-4c-13.2,11-14.9,30.6-4,43.7
	c0.2,0.3,0.5,0.6,0.8,0.9c10.2,12.2,23.2,21.7,37.9,27.8c9.8,4.2,19.9,7.3,30.4,9.3h0.3v30.7c-0.6,17.1,12.8,31.5,29.9,32.1
	c17.1,0.6,31.5-12.8,32.1-29.9c0-0.7,0-1.5,0-2.2v-31c16.3-3.5,31.8-9.9,45.9-18.8C503.7,531.2,520.3,502.9,520.5,472L520.5,472z"/>
</svg>
