<?xml version="1.0" encoding="utf-8"?>
<!-- Generator: Adobe Illustrator 24.1.2, SVG Export Plug-In . SVG Version: 6.00 Build 0)  -->
<svg version="1.1" id="Capa_1" xmlns="http://www.w3.org/2000/svg" xmlns:xlink="http://www.w3.org/1999/xlink" x="0px" y="0px"
	 viewBox="0 0 511.6 511.6" style="enable-background:new 0 0 511.6 511.6;" xml:space="preserve">
<style type="text/css">
	.st0{fill:#FFFFFF;}
</style>
<g>
	<path class="st0" d="M491.4,211.3c-13.5-31.6-31.7-58.8-54.5-81.7c-22.8-22.8-50.1-41-81.7-54.5c-31.6-13.5-64.7-20.3-99.4-20.3
		c-34.6,0-67.8,6.8-99.4,20.3c-31.6,13.5-58.8,31.7-81.7,54.5c-22.8,22.8-41,50.1-54.5,81.7C6.8,242.9,0,276,0,310.6
		c0,49.9,13.4,95.8,40.3,137.9c3.6,5.5,8.8,8.3,15.4,8.3H456c6.7,0,11.8-2.8,15.4-8.3c26.8-42.3,40.3-88.2,40.3-137.9
		C511.6,276,504.9,242.9,491.4,211.3z M230,102.1c7.1-7.1,15.8-10.7,25.8-10.7c10.1,0,18.7,3.6,25.8,10.7
		c7.1,7.1,10.7,15.7,10.7,25.8s-3.6,18.7-10.7,25.8s-15.7,10.7-25.8,10.7c-10.1,0-18.7-3.6-25.8-10.7c-7.1-7.1-10.7-15.7-10.7-25.8
		S222.8,109.2,230,102.1z M98.9,336.5c-7.1,7.1-15.8,10.7-25.8,10.7c-10.1,0-18.7-3.6-25.8-10.7c-7.1-7.1-10.7-15.7-10.7-25.8
		c0-10.1,3.6-18.7,10.7-25.8s15.8-10.7,25.8-10.7c10.1,0,18.7,3.6,25.8,10.7c7.1,7.1,10.7,15.7,10.7,25.8
		C109.6,320.7,106.1,329.3,98.9,336.5z M153.7,208.6c-7.1,7.1-15.8,10.7-25.8,10.7s-18.7-3.6-25.8-10.7
		c-7.1-7.1-10.7-15.7-10.7-25.8s3.6-18.7,10.7-25.8c7.1-7.1,15.8-10.7,25.8-10.7c10.1,0,18.7,3.6,25.8,10.7
		c7.1,7.1,10.7,15.7,10.7,25.8C164.5,192.8,160.9,201.4,153.7,208.6z M315.5,211l-28.8,109.1c9.5,6.5,16.4,15.1,20.6,26
		c4.2,10.8,4.8,22,1.7,33.4c-3.8,14.7-12.3,25.8-25.4,33.4c-13.1,7.6-27,9.5-41.7,5.7c-14.7-3.8-25.8-12.3-33.4-25.4
		c-7.6-13.1-9.5-27-5.7-41.7c3-11.4,9-20.8,18-28.1c8.9-7.3,19.1-11.5,30.5-12.4l28.8-109.1c1.3-4.9,4.2-8.7,8.6-11.3
		c4.4-2.6,8.9-3.2,13.7-1.9c4.8,1.3,8.4,4.1,11,8.4C315.9,201.4,316.6,206,315.5,211z M357.9,208.6c-7.1-7.1-10.7-15.7-10.7-25.8
		s3.6-18.7,10.7-25.8s15.7-10.7,25.8-10.7c10.1,0,18.7,3.6,25.8,10.7s10.7,15.7,10.7,25.8c0,10.1-3.6,18.7-10.7,25.8
		c-7.1,7.1-15.7,10.7-25.8,10.7C373.6,219.3,365,215.7,357.9,208.6z M464.4,336.5c-7.1,7.1-15.7,10.7-25.8,10.7
		c-10.1,0-18.7-3.6-25.8-10.7c-7.1-7.1-10.7-15.7-10.7-25.8c0-10.1,3.6-18.7,10.7-25.8s15.7-10.7,25.8-10.7
		c10.1,0,18.7,3.6,25.8,10.7s10.7,15.7,10.7,25.8C475.1,320.7,471.5,329.3,464.4,336.5z"/>
</g>
</svg>
