<?xml version="1.0" encoding="utf-8"?>
<!-- Uploaded to: SVG Repo, www.svgrepo.com, Generator: SVG Repo Mixer Tools -->
<svg fill="#adadad" height="800px" width="800px" version="1.1" id="_x31_" xmlns="http://www.w3.org/2000/svg"
	xmlns:xlink="http://www.w3.org/1999/xlink" viewBox="0 0 128 128" xml:space="preserve">
	<path id="_x31__1_" d="M118.8,118.4V72.8H90.6v-13H37.4v13h-13V40.3h11.9V29.4H24.4v-2.2h-2.2v2.2v10.8v32.5H9.8H9.2v45.6H0v4.3h128
	v-4.3H118.8z M105.8,91.3h-5.4v-5.4h5.4V91.3z M96,85.8v5.4h-5.4v-5.4H96z M37.4,91.3H32v-5.4h5.4V91.3z M27.7,85.8v5.4h-5.4v-5.4
	H27.7z M22.2,118.4V95.6h5.4v22.8H22.2z M32,118.4V95.6h5.4v22.8H32z M45,118.4V72.8h7.6v45.6H45z M60.2,118.4V72.8h7.6v45.6H60.2z
	 M75.4,118.4V72.8H83v45.6H75.4z M90.6,118.4V95.6H96v22.8H90.6z M100.3,118.4V95.6h5.4v22.8H100.3z" />
</svg>