<?xml version="1.0" encoding="utf-8"?>
<!-- Generator: Adobe Illustrator 26.5.3, SVG Export Plug-In . SVG Version: 6.00 Build 0)  -->
<svg version="1.1" id="Layer_1" xmlns="http://www.w3.org/2000/svg" xmlns:xlink="http://www.w3.org/1999/xlink" x="0px" y="0px"
	 viewBox="0 0 122.9 122.1" style="enable-background:new 0 0 122.9 122.1;" xml:space="preserve">
<style type="text/css">
	.st0{fill-rule:evenodd;clip-rule:evenodd;fill:#09BBD8;}
</style>
<path class="st0" d="M50,84.2c-0.5,0-1,0.1-1.5,0.4c-0.2,0.1-0.3,0.3-0.4,0.5C48,85.3,48,85.6,48,85.8c0.1,1.2,0.6,2.4,1.4,3.3l0,0
	l0,0l2.9,4.1c1.1,1.9,2.4,3.6,3.9,5.1c1.5,1.4,3.5,2.2,5.5,2.2c2.2,0,4.3-0.8,5.8-2.3c1.6-1.6,2.9-3.4,4-5.4l3.3-4.8
	c0.5-0.9,0.7-1.8,0.7-2.8c-0.1-0.3-0.4-0.5-1-0.5c-0.1,0-0.3,0-0.4,0h-0.4c-0.1,0-0.2,0-0.3,0c-0.3,0-0.6,0-0.9-0.1l1.1-4.9
	c-8.2,1.3-14.4-4.8-23.1-1.2l0.5,5.8C50.7,84.3,50.3,84.3,50,84.2L50,84.2z M26.3,110.8V46.5H3.6v66H25c-0.6,1-1.1,2.1-1.2,3.3
	l-0.1,0.3H1.8c-1,0-1.8-0.8-1.8-1.8V45.5c0-0.7,0.3-1.4,0.8-1.9c0.5-0.5,1.2-0.8,1.9-0.8h23.7V3.1c0-0.8,0.3-1.6,0.9-2.2l0,0
	C27.8,0.3,28.6,0,29.5,0h63.7c0.8,0,1.6,0.3,2.2,0.9l0.1,0.1c0.5,0.6,0.8,1.3,0.8,2.1v39.8h24c0.7,0,1.4,0.3,1.8,0.8l0,0
	c0.5,0.5,0.8,1.1,0.8,1.8v68.8c0,1-0.8,1.8-1.8,1.8l0,0h-22l-0.1-0.3c-0.2-1.2-0.6-2.3-1.2-3.3h21.4v-66h-23v64l-0.8-1.1l0,0
	c-0.6-0.8-1.4-1.6-2.2-2.3l-0.6-0.4V3.6H29.9v103.3l-0.3,0.2c-0.8,0.7-1.6,1.4-2.2,2.3C27,110,26.6,110.4,26.3,110.8z M103.3,80.7
	h7.4c0.2,0,0.3,0.1,0.3,0.2v5.8c0,0.1-0.1,0.2-0.3,0.2h-7.4c-0.2,0-0.3-0.1-0.3-0.2v-5.8C103,80.8,103.1,80.7,103.3,80.7z M12,80.7
	h7.4c0.2,0,0.3,0.1,0.3,0.2v5.8c0,0.1-0.1,0.2-0.3,0.2H12c-0.2,0-0.3-0.1-0.3-0.2v-5.8C11.7,80.8,11.8,80.7,12,80.7z M37.9,10.5
	h46.8c0.8,0,1.4,0.6,1.4,1.4v20.9c0,0.8-0.6,1.4-1.4,1.4H37.9c-0.8,0-1.4-0.6-1.4-1.4V11.9C36.5,11.1,37.1,10.5,37.9,10.5L37.9,10.5
	z M103.3,67.9h7.4c0.2,0,0.3,0.1,0.3,0.2V74c0,0.1-0.1,0.2-0.3,0.2h-7.4c-0.2,0-0.3-0.1-0.3-0.2v-5.8C103,68,103.1,67.9,103.3,67.9z
	 M103.3,55.2h7.4c0.2,0,0.3,0.1,0.3,0.2v5.8c0,0.1-0.1,0.2-0.3,0.2h-7.4c-0.2,0-0.3-0.1-0.3-0.2v-5.8
	C103,55.3,103.1,55.2,103.3,55.2z M12,67.9h7.4c0.2,0,0.3,0.1,0.3,0.2V74c0,0.1-0.1,0.2-0.3,0.2H12c-0.2,0-0.3-0.1-0.3-0.2v-5.8
	C11.7,68,11.8,67.9,12,67.9z M12,55.2h7.4c0.2,0,0.3,0.1,0.3,0.2v5.8c0,0.1-0.1,0.2-0.3,0.2H12c-0.2,0-0.3-0.1-0.3-0.2v-5.8
	C11.7,55.3,11.8,55.2,12,55.2z M75.4,63h9.3c0.2,0,0.3,0.1,0.3,0.3v10.5c0,0.2-0.1,0.3-0.3,0.3l0,0h-3.7c-0.2-1.8-0.6-3.6-1.2-5.2
	c-0.7-1.7-1.7-3.2-2.9-4.6l0,0C76.4,63.9,75.9,63.4,75.4,63z M37.9,63h10.5c-0.8,0.7-1.6,1.5-2.3,2.3c-1.2,1.5-2.1,3.3-2.7,5.2l0,0
	c-0.1,0.5-0.2,0.9-0.3,1.4s-0.1,0.9-0.2,1.3v0.3c0,0.2,0,0.4,0,0.6h-5.1c-0.2,0-0.3-0.1-0.3-0.3V63.3C37.6,63.2,37.8,63,37.9,63
	L37.9,63z M74.1,42.6h10.5c0.2,0,0.3,0.1,0.3,0.3v10.5c0,0.2-0.1,0.3-0.3,0.3H74.1c-0.2,0-0.3-0.1-0.3-0.3V42.9
	C73.8,42.7,74,42.6,74.1,42.6z M56,42.6h10.5c0.2,0,0.3,0.1,0.3,0.3v10.5c0,0.2-0.1,0.3-0.3,0.3H56c-0.2,0-0.3-0.1-0.3-0.3V42.9
	C55.7,42.7,55.8,42.6,56,42.6L56,42.6z M37.9,42.6h10.5c0.2,0,0.3,0.1,0.3,0.3v10.5c0,0.2-0.1,0.3-0.3,0.3H37.9
	c-0.2,0-0.3-0.1-0.3-0.3V42.9C37.6,42.7,37.8,42.6,37.9,42.6z M55.3,108.6v-5.7c1.9,0.5,3.8,1.3,5.4,2.4c0.4-0.1,0.8-0.2,1.3-0.1
	l6-2.7l-0.2,6.3c-1.4-0.3-2.7-0.8-3.9-1.5c0,0.4-0.1,0.8-0.3,1.1l2.5,8.8c2-4.1,4-8.2,4.5-12.9c-0.8-1-1.6-2.1-2.3-3.2
	c-0.2-0.3-0.4-0.6-0.6-0.9c-3.7,2.6-8.7,2.5-12.1-0.5l0,0c-0.3,0.4-0.6,0.8-0.9,1.3c-0.6,0.9-1.3,1.9-2,2.7c0.9,5.4,3,9.3,4.8,13.3
	l2.5-8.8c-0.3-0.4-0.5-0.9-0.5-1.4L55.3,108.6L55.3,108.6z M68.6,99.5l0.7,1c0.4,0.7,0.9,1.4,1.4,2c3.4,2.9,13,3.5,16.6,5.5
	c1.2,0.6,2.2,1.5,3,2.6c2.1,2.7,2.3,4.9,3,8.3c-0.2,2-1.3,3.1-3.5,3.3H33.1c-2.2-0.2-3.3-1.3-3.5-3.3c0.8-3.4,0.9-5.5,3-8.3
	c0.8-1.1,1.8-1.9,3-2.6c3.4-1.9,12.3-2.5,16-5.1c0.6-0.8,1.2-1.7,1.8-2.5c0.3-0.5,0.7-1,0.9-1.3c0-0.1,0.1-0.1,0.2-0.2
	c-1.4-1.5-2.6-3.1-3.6-4.9L48,90c-0.9-1.2-1.5-2.7-1.6-4.2c0-0.5,0.1-1,0.3-1.5c0.2-0.5,0.6-0.9,1-1.2c0.2-0.1,0.5-0.3,0.7-0.4
	c-0.2-2.7-0.2-5.5-0.1-8.2c0.3-3.4,2.3-6.4,5.2-8.1c0.8-0.5,1.7-0.9,2.6-1.3c1.7-0.6,0.8-3.1,2.7-3.2c4.3-0.1,11.3,3.5,14.1,6.5
	c1.7,1.9,2.7,4.4,2.8,7.1l-0.2,7.5l0,0c0.8,0.2,1.3,0.8,1.5,1.6c0.2,1.4-0.1,2.7-0.8,3.9l0,0v0.1l-3.3,4.9c-1.1,2.1-2.6,4.1-4.3,5.8
	L68.6,99.5L68.6,99.5z"/>
</svg>
