<?xml version="1.0" encoding="utf-8"?>
<!-- Generator: Adobe Illustrator 24.1.2, SVG Export Plug-In . SVG Version: 6.00 Build 0)  -->
<svg version="1.1" id="Layer_1" xmlns="http://www.w3.org/2000/svg" xmlns:xlink="http://www.w3.org/1999/xlink" x="0px" y="0px"
	 viewBox="0 0 512 512" style="enable-background:new 0 0 512 512;" xml:space="preserve">
<style type="text/css">
	.st0{fill:#FFFFFF;}
</style>
<path class="st0" d="M326.9,422h30v30h-30V422z"/>
<path class="st0" d="M215.2,422h81.7v30h-81.7V422z"/>
<path class="st0" d="M215.2,301.9h81.7v30h-81.7V301.9z"/>
<path class="st0" d="M326.9,301.9h30v30h-30V301.9z"/>
<path class="st0" d="M155.1,422h30v30h-30V422z"/>
<path class="st0" d="M155.1,301.9h30v30h-30V301.9z"/>
<path class="st0" d="M435.9,141.6c-3.7-21.5-14.1-41.3-30.1-56.6c-19.3-18.5-44.6-28.7-71.4-28.7c-11.8,0-23.6,2.1-34.7,6
	C276.4,24,234.4,0,189,0C117.5,0,59.4,58.1,59.4,129.6c0,5.3,0.3,10.7,1,15.9C24.6,158,0,191.7,0,230.7c0,49.7,40.5,90.2,90.2,90.2
	h4.9V512h321.8V320.9h4.9c49.7,0,90.2-40.5,90.2-90.2C512,185.9,478.9,148.4,435.9,141.6z M386.9,361.9H125.1v-90.1h261.9V361.9z
	 M125.1,482v-90.1h261.9V482H125.1z M421.8,290.9h-4.9v-49.1H95.1v49.1h-4.9c-33.2,0-60.2-27-60.2-60.2c0-29.5,21.1-54.4,50.1-59.3
	l15.9-2.7l-3.8-15.6c-1.8-7.6-2.8-15.5-2.8-23.4C89.4,74.7,134.1,30,189,30c38.7,0,74.2,22.7,90.5,57.9l6.7,14.4l14-7.5
	c10.6-5.7,22.2-8.6,34.3-8.6c39.3,0,71.3,30.7,72.9,69.9l0.6,14.3l14.3,0.1c33,0.2,59.8,27.2,59.8,60.2
	C482,263.9,455,290.9,421.8,290.9z"/>
</svg>
