<?xml version="1.0" encoding="utf-8"?>
<!-- Generator: Adobe Illustrator 23.0.3, SVG Export Plug-In . SVG Version: 6.00 Build 0)  -->
<svg version="1.1" id="Capa_1" xmlns="http://www.w3.org/2000/svg" xmlns:xlink="http://www.w3.org/1999/xlink" x="0px" y="0px"
	 viewBox="0 0 512 512" style="enable-background:new 0 0 512 512;" xml:space="preserve">
<g>
	<g>
		<rect x="42.7" y="288" width="426.7" height="21.3"/>
	</g>
</g>
<g>
	<g>
		<path d="M341.2,457.3L330.6,372c-0.7-5.3-5.2-9.3-10.6-9.3H192c-5.4,0-9.9,4-10.6,9.3l-10.7,85.3c-0.1,0.4-0.1,0.9-0.1,1.3
			c0,5.9,4.8,10.7,10.7,10.7h149.3c0.4,0,0.9,0,1.3-0.1C337.8,468.5,342,463.2,341.2,457.3z M193.4,448l8-64h109.2l8,64H193.4z"/>
	</g>
</g>
<g>
	<g>
		<path d="M362.7,448H149.3c-5.9,0-10.7,4.8-10.7,10.7v32c0,11.8,9.6,21.3,21.3,21.3h192c11.8,0,21.3-9.6,21.3-21.3v-32
			C373.3,452.8,368.6,448,362.7,448z M352,490.7H160v-21.3h192V490.7z"/>
	</g>
</g>
<g>
	<g>
		<path d="M490.7,234.7V352c0,5.9-4.8,10.7-10.7,10.7H32c-5.9,0-10.7-4.8-10.7-10.7V32c0-5.9,4.8-10.7,10.7-10.7h245.3V0H32
			C14.3,0,0,14.3,0,32v320c0,17.7,14.3,32,32,32h448c17.7,0,32-14.3,32-32V234.7H490.7z"/>
	</g>
</g>
<g>
	<g>
		<rect x="117.3" y="490.7" width="277.3" height="21.3"/>
	</g>
</g>
<g>
	<g>
		<path d="M64,53.3c-5.9,0-10.7,4.8-10.7,10.7v202.7h21.3v-192h170.7V53.3H64z"/>
	</g>
</g>
<g>
	<g>
		<path d="M501.3,96h-26.9c-1.1-3.2-2.4-6.3-3.9-9.3l19-19c4.2-4.2,4.2-10.9,0-15.1l-30.2-30.2c-4.2-4.2-10.9-4.2-15.1,0l-19,19
			c-3-1.4-6.1-2.7-9.3-3.9V10.7C416,4.8,411.2,0,405.3,0h-42.7C356.8,0,352,4.8,352,10.7v26.9c-3.2,1.1-6.3,2.4-9.3,3.9l-19-19
			c-4.2-4.2-10.9-4.2-15.1,0l-30.2,30.2c-4.2,4.2-4.2,10.9,0,15.1l19,19c-1.5,3-2.7,6.1-3.9,9.3h-26.9c-5.9,0-10.7,4.8-10.7,10.7
			v42.7c0,5.9,4.8,10.7,10.7,10.7h26.9c1.1,3.2,2.4,6.3,3.9,9.3l-19,19c-4.2,4.2-4.2,10.9,0,15.1l30.2,30.2c4.2,4.2,10.9,4.2,15.1,0
			l19-19c3,1.4,6.1,2.7,9.3,3.9v26.9c0,5.9,4.8,10.7,10.7,10.7h42.7c5.9,0,10.7-4.8,10.7-10.7v-26.9c3.2-1.1,6.3-2.4,9.3-3.9l19,19
			c4.2,4.2,10.9,4.2,15.1,0l30.2-30.2c4.2-4.2,4.2-10.9,0-15.1l-19-19c1.5-3,2.7-6.1,3.9-9.3h26.9c5.9,0,10.7-4.8,10.7-10.7v-42.7
			C512,100.8,507.2,96,501.3,96z M490.7,138.7h-24.1c-4.9,0-9.1,3.3-10.3,8c-1.7,6.7-4.4,13.2-8,19.2c-2.5,4.2-1.8,9.5,1.7,13
			l17.1,17.1L451.9,211l-17.1-17.1c-3.4-3.4-8.8-4.1-13-1.6c-6,3.5-12.5,6.2-19.2,7.9c-4.7,1.2-8,5.5-8,10.3v24.1h-21.3l0-24.1
			c0-4.9-3.3-9.1-8-10.3c-6.7-1.7-13.2-4.4-19.2-7.9c-4.2-2.5-9.5-1.8-13,1.6L316.1,211L301,195.9l17.1-17.1c3.4-3.4,4.1-8.8,1.7-13
			c-3.5-6-6.2-12.5-8-19.2c-1.2-4.7-5.5-8-10.3-8h-24.1v-21.3h24.1c4.9,0,9.1-3.3,10.3-8c1.7-6.7,4.4-13.2,8-19.2
			c2.5-4.2,1.8-9.5-1.7-13L301,60.1L316.1,45l17.1,17.1c3.4,3.4,8.8,4.1,13,1.6c6-3.5,12.5-6.2,19.2-7.9c4.7-1.2,8-5.5,8-10.3V21.3
			h21.3v24.1c0,4.9,3.3,9.1,8,10.3c6.7,1.7,13.2,4.4,19.2,7.9c4.2,2.5,9.5,1.8,13-1.6L451.9,45L467,60.1l-17.1,17.1
			c-3.4,3.4-4.1,8.8-1.7,13c3.5,6,6.2,12.5,8,19.2c1.2,4.7,5.5,8,10.3,8h24.1L490.7,138.7L490.7,138.7z"/>
	</g>
</g>
<g>
	<g>
		<path d="M384,85.3c-23.6,0-42.7,19.1-42.7,42.7s19.1,42.7,42.7,42.7c23.6,0,42.7-19.1,42.7-42.7S407.6,85.3,384,85.3z M384,149.3
			c-11.8,0-21.3-9.6-21.3-21.3s9.6-21.3,21.3-21.3s21.3,9.6,21.3,21.3S395.8,149.3,384,149.3z"/>
	</g>
</g>
<g>
	<g>
		<path d="M213.3,96H106.7c-5.9,0-10.7,4.8-10.7,10.7v42.7c0,5.9,4.8,10.7,10.7,10.7h106.7c5.9,0,10.7-4.8,10.7-10.7v-42.7
			C224,100.8,219.2,96,213.3,96z M202.7,138.7h-85.3v-21.3h85.3V138.7z"/>
	</g>
</g>
<g>
	<g>
		<rect x="96" y="181.3" width="21.3" height="21.3"/>
	</g>
</g>
<g>
	<g>
		<rect x="138.7" y="181.3" width="21.3" height="21.3"/>
	</g>
</g>
<g>
	<g>
		<rect x="96" y="224" width="128" height="21.3"/>
	</g>
</g>
</svg>
