<?xml version="1.0" encoding="utf-8"?>
<!-- Generator: Adobe Illustrator 26.5.3, SVG Export Plug-In . SVG Version: 6.00 Build 0)  -->
<svg version="1.1" id="Layer_1" xmlns="http://www.w3.org/2000/svg" xmlns:xlink="http://www.w3.org/1999/xlink" x="0px" y="0px"
	 viewBox="0 0 800 800" style="enable-background:new 0 0 800 800;" xml:space="preserve">
<style type="text/css">
	.st0{fill:none;}
	.st1{fill:#005F93;}
</style>
<rect class="st0" width="800" height="800"/>
<g>
	<path class="st1" d="M236.7,531.7L236.7,531.7c9.8-15.6,5.1-36.2-10.5-46c-1.4-0.9-2.9-1.7-4.5-2.4C140.9,449.8,92,366.9,101.7,280
		c9.1-95.4,84.6-170.9,180-180c74.7-6,146.6,29.9,186.7,93.3c8.8,12,23.7,17.9,38.3,15l0,0c17.6-5.3,27.6-23.9,22.2-41.6
		c-0.9-3-2.2-5.8-3.9-8.4C472,72.9,375,25,275,35C128.4,49.5,21.3,180,35.8,326.5C45.3,422.9,106.2,506.5,195,545
		C210.3,551.6,228,545.9,236.7,531.7z"/>
	<path class="st1" d="M275,191.7V275h-83.3c-18.4,0-33.3,14.9-33.3,33.3c0,18.4,14.9,33.3,33.3,33.3h150v-150
		c0-18.4-14.9-33.3-33.3-33.3C289.9,158.3,275,173.3,275,191.7z"/>
	<path class="st1" d="M761.7,716.7l-250-433.3c-9.7-15.6-30.2-20.5-45.9-10.8c-4.4,2.7-8.1,6.4-10.8,10.8L205,716.7
		c-9.2,15.9-3.7,36.3,12.2,45.5c4.9,2.8,10.5,4.4,16.1,4.5h500c18.4-0.3,33.1-15.5,32.8-33.9C766,727.1,764.5,721.6,761.7,716.7z
		 M483.3,700c-18.4,0-33.3-14.9-33.3-33.3s14.9-33.3,33.3-33.3s33.3,14.9,33.3,33.3S501.7,700,483.3,700z M516.7,566.7
		c0,18.4-14.9,33.3-33.3,33.3S450,585.1,450,566.7V433.3c0-18.4,14.9-33.3,33.3-33.3s33.3,14.9,33.3,33.3V566.7z"/>
</g>
</svg>
