<?xml version="1.0" encoding="utf-8"?>
<!-- Generator: Adobe Illustrator 26.5.3, SVG Export Plug-In . SVG Version: 6.00 Build 0)  -->
<svg version="1.1" id="Layer_1" xmlns="http://www.w3.org/2000/svg" xmlns:xlink="http://www.w3.org/1999/xlink" x="0px" y="0px"
	 viewBox="0 0 1000 1000" style="enable-background:new 0 0 1000 1000;" xml:space="preserve">
<style type="text/css">
	.st0{fill:#09BBD8;}
</style>
<g>
	<g transform="translate(0.000000,511.000000) scale(0.100000,-0.100000)">
		<path class="st0" d="M4594.8,5002.9c-514.4-60-918.7-148.1-1271-278.2c-252.2-92.1-714.6-318.2-910.7-442.3
			c-634.5-404.3-1184.9-954.7-1589.2-1589.2c-124.1-194.2-350.3-658.5-440.4-904.7c-92.1-246.2-200.2-680.5-246.2-976.8
			c-50-328.3-50-1078.8,2-1411.1c80.1-524.4,218.2-960.8,452.4-1441.1c244.2-500.4,534.4-906.7,940.7-1311
			c824.6-824.6,1853.5-1309,3022.4-1423.1c302.2-28,862.7-14,1160.9,32c1048.8,160.1,1989.6,636.5,2742.1,1391.1
			c1473.1,1473.1,1857.5,3678.9,968.8,5562.3C9036.3,3037.4,8379.7,3772,7577.1,4282.4c-196.2,124.1-658.5,350.3-910.7,442.3
			c-242.2,90.1-666.5,196.2-950.7,240.2C5515.5,4996.9,4754.9,5020.9,4594.8,5002.9z M5635.6,3926.1
			c288.2-54,500.4-114.1,740.6-206.2c1497.2-576.5,2481.9-2007.6,2481.9-3608.8c0-2133.7-1729.4-3861-3867-3863
			c-1597.2,0-3028.4,984.8-3604.8,2481.9c-182.1,470.4-244.2,820.6-244.2,1381.1c0,448.3,12,560.4,104.1,940.7
			c228.2,946.7,868.7,1821.4,1727.4,2355.8C3446,3699.8,3930.3,3866,4604.9,3962C4744.9,3982.1,5471.5,3956.1,5635.6,3926.1z"/>
		<path class="st0" d="M4786.9,3171.5c-288.2-68.1-544.4-308.2-632.5-596.5c-132.1-420.3,62.1-878.7,450.4-1062.8
			c452.4-216.2,962.8-36,1186.9,416.3c62,128.1,72.1,170.1,80.1,324.3c22,444.4-238.2,798.6-666.5,912.7
			C5093.2,3195.5,4903,3199.5,4786.9,3171.5z"/>
		<path class="st0" d="M4394.6,569.5c-28-12-72.1-40-96.1-64c-108.1-100.1-104.1-34-104.1-1699.3c0-1743.4-10-1639.3,152.1-1731.4
			c76.1-44,96.1-46,644.5-46c528.4,0,570.5,2,644.5,40c52,26,94.1,68.1,120.1,120.1c40,76.1,40,114.1,40,1627.3V365.3l-44,66
			c-26,36-72.1,86.1-102.1,108.1c-54.1,40-84.1,42-630.5,46C4664.8,587.5,4424.6,581.5,4394.6,569.5z"/>
	</g>
</g>
</svg>
