<?xml version="1.0" encoding="utf-8"?>
<!-- Generator: Adobe Illustrator 26.5.3, SVG Export Plug-In . SVG Version: 6.00 Build 0)  -->
<svg version="1.1" id="Capa_1" xmlns="http://www.w3.org/2000/svg" xmlns:xlink="http://www.w3.org/1999/xlink" x="0px" y="0px"
	 viewBox="0 0 512 512" style="enable-background:new 0 0 512 512;" xml:space="preserve">
<style type="text/css">
	.st0{fill:#09BBD8;}
</style>
<g>
	<g>
		<path class="st0" d="M256,0C115,0,0,115,0,256s115,256,256,256s256-115,256-256S397,0,256,0z M153.3,54.7
			c-16,19.5-28.5,42-38,65.3H75.6C96.2,92.8,122.7,70.4,153.3,54.7z M56.5,150h48.4c-8.4,28.5-13.3,59.2-14.5,91H30.5
			C32.7,208.3,41.8,177.5,56.5,150z M56.5,362c-14.6-27.5-23.8-58.3-25.9-91h59.8c1.2,31.8,6.1,62.5,14.5,91H56.5z M75.6,392h39.7
			c9.5,23.3,22,45.8,38,65.3C122.7,441.6,96.2,419.2,75.6,392z M241,480.6c-43.1-8.2-74.6-48.9-93-88.6h93V480.6z M241,362H136.2
			c-9.2-28-14.6-58.9-15.9-91H241V362z M241,241H120.3c1.3-32.1,6.7-63,15.9-91H241V241z M241,120h-93c18.4-39.7,49.9-80.4,93-88.6
			V120z M455.5,150c14.6,27.5,23.8,58.3,25.9,91h-59.8c-1.2-31.8-6.1-62.5-14.5-91H455.5z M436.4,120h-39.7
			c-9.5-23.3-22-45.8-38-65.3C389.3,70.4,415.8,92.8,436.4,120z M271,31.4c43.1,8.2,74.6,48.9,93,88.6h-93V31.4z M271,150h104.8
			c9.2,28,14.6,58.9,15.9,91H271V150z M271,270.9h120.7C390.4,303,385,334,375.8,362H271V270.9z M271,480.6V392h93
			C345.6,431.7,314.1,472.4,271,480.6z M358.7,457.3c16-19.5,28.5-42,38-65.3h39.7C415.8,419.2,389.3,441.6,358.7,457.3z M407.2,362
			c8.4-28.5,13.3-59.3,14.5-91.1h59.8c-2.2,32.7-11.3,63.6-25.9,91.1H407.2z"/>
	</g>
</g>
</svg>
