<?xml version="1.0" encoding="utf-8"?>
<!-- Generator: Adobe Illustrator 26.5.3, SVG Export Plug-In . SVG Version: 6.00 Build 0)  -->
<svg version="1.1" id="Layer_1" xmlns="http://www.w3.org/2000/svg" xmlns:xlink="http://www.w3.org/1999/xlink" x="0px" y="0px"
	 viewBox="0 0 122.9 109.4" style="enable-background:new 0 0 122.9 109.4;" xml:space="preserve">
<style type="text/css">
	.st0{fill-rule:evenodd;clip-rule:evenodd;fill:#09BBD8;}
</style>
<path class="st0" d="M49,76.9c-1.8,8.3-5.8,15.9-11.5,22.2c-2.9,3.2-6.2,5.9-9.9,8.2c-1.1,0.9-2.7,0.9-3.9,0.1
	c-5.3-3.3-10-7.5-13.9-12.4c-4.8-5.9-8-12.9-9.4-20.3c-1.1-7.1-0.1-14,3.6-19.6c1.5-2.3,3.3-4.3,5.4-6c4.6-3.9,10.4-6,16.5-6.1
	c5.9,0.1,11.5,2.4,15.8,6.4c1.7,1.5,3.1,3.2,4.3,5.1C49.8,61,50.7,68.9,49,76.9z M41,106h78.5V32.1h-31V106h-3.4V3.4H32.8v33.2h-0.1
	h0h-0.2h0h-0.2h-0.1h-0.1H32h-0.2h-0.1h-2.4V18l0,0V3c0-0.8,0.3-1.6,0.9-2.1l0,0C30.9,0.3,31.6,0,32.4,0h53.1c0.8,0,1.6,0.3,2.1,0.9
	L87.8,1c0.5,0.6,0.8,1.3,0.8,2v25.7h31.8c0.7,0,1.3,0.3,1.8,0.7l0,0c0.5,0.5,0.7,1.1,0.7,1.8v76.5c0,0.9-0.8,1.7-1.7,1.7
	c0,0,0,0,0,0h-84l0,0l0.1-0.1l0.1-0.1l0.1-0.1l0.1-0.1l0.1-0.1l0,0l0,0h0.1l0,0l0,0l0,0l0,0h0l0,0l0,0h0.1l0,0l0,0h0l0,0h0.1l0,0
	l0,0h0.1l0,0l0,0l0,0l0,0l0.1-0.1l0,0l0,0l0,0l0,0l0,0l0,0l0,0l0,0l0,0l0,0l0,0l0,0V109l0,0l0,0l0,0l0,0H38l0,0l0,0h0l0,0l0,0h0l0,0
	l0.1-0.1l0,0l0,0h0.1l0,0l0,0l0,0l0,0h0.1l0,0l0,0h0l0,0l0,0l0,0l0,0l0,0l0,0l0,0l0,0l0,0l1.7-2l0.1-0.1l0,0l0,0l0,0l0,0h0.1l0,0
	l0,0l0,0l0,0l0,0l0,0l0,0l0,0l0,0l0,0l0,0l0,0l0-0.1l0,0l0,0l0,0l0,0l0,0l0,0l0,0l0-0.1l0,0l0,0L41,106z M56.1,60.5h4
	c0.3,0,0.6,0.3,0.6,0.6l0,0v9.5c0,0.3-0.3,0.6-0.6,0.6H57c0.1-2.4,0-4.8-0.3-7.3C56.5,62.8,56.3,61.7,56.1,60.5L56.1,60.5z
	 M55.7,80.2h4.4c0.3,0,0.6,0.3,0.6,0.6v9.5c0,0.3-0.2,0.6-0.6,0.6c0,0,0,0,0,0h-8.3C53.4,87.5,54.8,84,55.7,80.2z M50.7,40.8h9.4
	c0.3,0,0.6,0.3,0.6,0.6v0v9.5c0,0.3-0.2,0.6-0.6,0.6c0,0,0,0,0,0h-7.5l-0.4-0.6c-0.6-1.1-1.4-2.1-2.1-3.1v-6.4
	C50.1,41.1,50.3,40.8,50.7,40.8C50.7,40.8,50.7,40.8,50.7,40.8z M67.7,80.2H77c0.3,0,0.6,0.3,0.6,0.6v9.5c0,0.3-0.2,0.6-0.5,0.6
	c0,0,0,0-0.1,0h-9.4c-0.3,0-0.6-0.2-0.6-0.6c0,0,0,0,0,0v-9.6C67,80.5,67.3,80.2,67.7,80.2L67.7,80.2z M67.7,60.5H77
	c0.3,0,0.6,0.3,0.6,0.6c0,0,0,0,0,0v9.5c0,0.3-0.3,0.6-0.6,0.6h-9.4c-0.3,0-0.6-0.3-0.6-0.6v-9.5c0-0.3,0.2-0.6,0.6-0.6
	C67.6,60.5,67.6,60.5,67.7,60.5L67.7,60.5z M67.7,40.8H77c0.3,0,0.6,0.3,0.6,0.6v0v9.5c0,0.3-0.2,0.6-0.6,0.6c0,0,0,0,0,0h-9.4
	c-0.3,0-0.6-0.2-0.6-0.6c0,0,0,0,0,0v-9.5C67,41.1,67.3,40.8,67.7,40.8C67.6,40.8,67.6,40.8,67.7,40.8L67.7,40.8z M97.7,71.4h13.6
	c0.2,0,0.3,0.1,0.3,0.2v5.6c0,0.1-0.2,0.2-0.3,0.2H97.6c-0.1,0-0.3-0.1-0.3-0.2v-5.6C97.3,71.5,97.4,71.4,97.7,71.4L97.7,71.4z
	 M40.5,10.9h36.9c0.8,0,1.4,0.6,1.4,1.4v14.6c0,0.8-0.6,1.4-1.4,1.4H40.5c-0.8,0-1.4-0.6-1.4-1.4V12.3
	C39.2,11.5,39.8,10.9,40.5,10.9z M97.6,59.2h13.6c0.2,0,0.3,0.1,0.3,0.2V65c0,0.1-0.2,0.2-0.3,0.2H97.6c-0.1,0-0.3-0.1-0.3-0.2v-5.6
	C97.3,59.3,97.4,59.2,97.6,59.2z M97.6,47h13.6c0.2,0,0.3,0.1,0.3,0.2v5.6c0,0.1-0.2,0.2-0.3,0.2H97.6c-0.1,0-0.3-0.1-0.3-0.2v-5.6
	C97.3,47,97.4,46.9,97.6,47L97.6,47z M24.9,56.9c6.3,0,11.4,5.1,11.4,11.3c0,6.3-5.1,11.4-11.3,11.4s-11.4-5.1-11.4-11.3
	c0,0,0,0,0,0C13.5,62,18.6,56.9,24.9,56.9z"/>
</svg>
