<?xml version="1.0" encoding="utf-8"?>
<!-- Generator: Adobe Illustrator 24.1.3, SVG Export Plug-In . SVG Version: 6.00 Build 0)  -->
<svg version="1.1" id="Layer_1" xmlns="http://www.w3.org/2000/svg" xmlns:xlink="http://www.w3.org/1999/xlink" x="0px" y="0px"
	 viewBox="0 0 185 53" style="enable-background:new 0 0 185 53;" xml:space="preserve">
<style type="text/css">
	.st0{fill:#005F93;}
	.st1{fill:#008AFC;}
	.st2{fill:#218489;}
	.st3{fill:#09BBD8;}
	.st4{fill:#27A0AD;}
	.st5{fill:#00CDFC;}
	.st6{fill:#80E1FF;}
</style>
<path class="st0" d="M65.4,14.6c2.9,0,5.3,1,7.1,2.9c1.8,1.9,2.7,4.5,2.7,7.6c0,3-0.9,5.5-2.7,7.4c-1.8,1.9-4.2,2.9-7.1,2.9
	s-5.3-1-7.1-2.9c-1.8-1.9-2.7-4.4-2.7-7.4c0-3.1,0.9-5.6,2.7-7.6C60.2,15.6,62.5,14.6,65.4,14.6z M60.1,25.1c0,2,0.5,3.6,1.4,4.8
	s2.3,1.8,4,1.8c1.7,0,3-0.6,4-1.8c1-1.2,1.4-2.8,1.4-4.9s-0.5-3.8-1.4-5c-1-1.2-2.3-1.8-4-1.8c-1.7,0-3,0.6-3.9,1.8
	C60.5,21.3,60.1,23,60.1,25.1z"/>
<path class="st0" d="M85.9,20.2c2,0,3.6,0.7,4.8,2.1c1.2,1.4,1.8,3.3,1.8,5.6c0,2.2-0.6,4-1.7,5.3s-2.7,2.1-4.6,2.1
	s-3.3-0.7-4.3-2.2h-0.1V40h-4V20.6h3.8v1.8h0.1C82.5,20.9,84,20.2,85.9,20.2z M81.6,27.8c0,1.4,0.3,2.5,0.9,3.3s1.4,1.2,2.6,1.2
	c1.1,0,2-0.4,2.6-1.2c0.6-0.8,0.8-1.9,0.8-3.3s-0.3-2.6-0.9-3.4s-1.5-1.2-2.6-1.2s-1.9,0.4-2.5,1.2S81.6,26.4,81.6,27.8z"/>
<path class="st0" d="M109.9,15.1v3.7h-6V35h-4.4V18.8h-6v-3.7C93.5,15.1,109.9,15.1,109.9,15.1z"/>
<path class="st0" d="M116.6,15.1V35h-4.4V15.1H116.6z"/>
<path class="st1" d="M127.3,14.6c2.4,0,4.4,0.6,5.8,1.7c1.4,1.1,2.2,2.7,2.2,4.7H131c-0.1-1-0.4-1.8-1-2.3s-1.6-0.8-2.9-0.8
	c-0.9,0-1.6,0.2-2.2,0.6s-0.8,1-0.8,1.7c0,0.6,0.2,1,0.5,1.3s0.8,0.5,1.5,0.7c0.6,0.2,1.7,0.5,3.3,0.9c1.7,0.4,2.9,0.9,3.8,1.3
	s1.6,1.1,2,1.9c0.5,0.8,0.7,1.7,0.7,2.8c0,1.3-0.3,2.4-1,3.4s-1.6,1.7-2.9,2.2s-2.7,0.8-4.3,0.8c-2.5,0-4.5-0.6-6.1-1.8
	s-2.4-2.9-2.4-5.1v-0.1h4.2c0,1.2,0.4,2.1,1.2,2.7s1.9,1,3.2,1c1.2,0,2.1-0.2,2.8-0.6s1.1-1,1.1-1.9c0-0.5-0.2-1-0.6-1.4
	s-0.9-0.7-1.6-0.9c-0.7-0.2-1.7-0.5-3.3-0.9c-1.8-0.4-3.1-0.9-3.9-1.4s-1.4-1.1-1.9-1.8c-0.4-0.7-0.6-1.6-0.6-2.6
	c0-1.2,0.4-2.3,1.1-3.3c0.7-0.9,1.6-1.6,2.8-2.1S126,14.6,127.3,14.6z"/>
<path class="st1" d="M148.4,15.1l7.4,19.9h-4.5l-1.5-4.4h-7.4l-1.6,4.4h-4.4l7.5-19.9H148.4z M146.1,20l-2.6,7.3h5.1L146.1,20
	L146.1,20z"/>
<path class="st1" d="M163.7,15.1l4.6,13.7h0.1l4.4-13.7h6.1V35h-4.1V20.9h-0.1L169.9,35h-3.4l-4.8-14h-0.1v14h-4.1V15.1H163.7z"/>
<g>
	<path class="st1" d="M26.2,23.6c-1.6,0-2.9,1.3-2.9,2.9s1.3,2.9,2.9,2.9s2.9-1.3,2.9-2.9S27.8,23.6,26.2,23.6z M26.2,27.5
		c-0.6,0-1-0.4-1-1s0.4-1,1-1s1,0.4,1,1S26.7,27.5,26.2,27.5z"/>
	<path class="st2" d="M19.2,18.2c-0.5,0.4-1,0.9-1.4,1.4c-1.4,1.6-2.3,3.7-2.5,6h5.9c0.1-0.7,0.4-1.3,0.8-1.8s0.8-1,1.4-1.4
		c0.5-0.4,1.1-0.6,1.8-0.8v-5.9C22.9,15.9,20.9,16.8,19.2,18.2z"/>
	<path class="st3" d="M28.9,30.6c-0.5,0.4-1.1,0.6-1.8,0.8c-0.3,0.1-0.6,0.1-1,0.1c-0.3,0-0.7,0-1-0.1c-0.1,0-0.2,0-0.3-0.1l0,0
		l-2,4.7l-0.3,0.7c0.8,0.3,1.7,0.5,2.6,0.6c0.3,0,0.6,0,1,0s0.6,0,1,0c2.3-0.2,4.3-1.1,6-2.5L28.9,30.6z"/>
	<path class="st4" d="M23.1,30.5c-0.5-0.4-0.9-0.9-1.3-1.4c-0.3-0.5-0.5-1-0.6-1.5h-5.9c0.2,2,0.9,3.9,2.1,5.4
		c0.4,0.5,0.8,1,1.3,1.4c0.6,0.6,1.4,1.1,2.1,1.6l0.3-0.7L23.1,30.5C23.2,30.5,23.1,30.5,23.1,30.5z"/>
	<path class="st5" d="M37,25.5c-0.2-2-0.9-3.9-2.1-5.4L30.5,24c0.3,0.5,0.5,1,0.6,1.5c0.1,0.3,0.1,0.6,0.1,1c0,0.3,0,0.7-0.1,1
		c-0.1,0.7-0.4,1.3-0.8,1.8l4.2,4.2c1.4-1.6,2.3-3.7,2.5-6c0-0.3,0-0.6,0-1C37,26.2,37,25.9,37,25.5z"/>
	<path class="st6" d="M27.1,15.7v5.9c0.8,0.1,1.5,0.5,2.1,0.9l4.4-3.9C31.9,17,29.6,15.9,27.1,15.7z"/>
</g>
<path class="st0" d="M28.8,4.5v9.3c-0.8-0.2-1.7-0.3-2.6-0.3s-1.8,0.1-2.6,0.3V4.5H28.8z"/>
<path class="st0" d="M48.2,23.9v5.3h-9.3c0.2-0.8,0.3-1.7,0.3-2.6s-0.1-1.8-0.3-2.6h9.3V23.9z"/>
<path class="st0" d="M19.1,15.7c-1.5,1-2.8,2.2-3.7,3.7l-6.6-6.6l3.7-3.7L19.1,15.7z"/>
<path class="st0" d="M43.6,40.2l-3.7,3.7l-6.6-6.6c1.5-1,2.8-2.2,3.7-3.7L43.6,40.2z"/>
<path class="st0" d="M19.1,37.3l-6.6,6.6l-3.7-3.7l6.6-6.6C16.3,35.1,17.6,36.4,19.1,37.3z"/>
<path class="st0" d="M12.2,16.3c-1.6,2.2-2.7,4.8-3.1,7.6h4.4c0.3-1.6,1-3.1,1.9-4.5L12.2,16.3z"/>
<path class="st0" d="M19.1,37.3L16,40.4c2.2,1.6,4.8,2.7,7.6,3.1v-4.4C21.9,38.9,20.4,38.2,19.1,37.3z"/>
<path class="st0" d="M38.9,29.1c-0.3,1.6-1,3.1-1.9,4.5l3.1,3.1c1.6-2.2,2.7-4.8,3.1-7.6C43.2,29.1,38.9,29.1,38.9,29.1z"/>
<path class="st0" d="M40.1,16.3L37,19.4c0.9,1.3,1.5,2.8,1.9,4.5h4.4C42.8,21.1,41.7,18.5,40.1,16.3z"/>
<path class="st0" d="M28.8,13.8c1.6,0.3,3.1,1,4.5,1.9l3.1-3.1c-2.2-1.6-4.8-2.7-7.6-3.1C28.8,9.5,28.8,13.8,28.8,13.8z"/>
<path class="st0" d="M33.3,37.3c-1.3,0.9-2.8,1.5-4.5,1.9v4.4c2.8-0.4,5.4-1.5,7.6-3.1L33.3,37.3z"/>
<path class="st0" d="M13.5,29.1H9.1c0.4,2.8,1.5,5.4,3.1,7.6l3.1-3.1C14.4,32.3,13.8,30.8,13.5,29.1z"/>
<path class="st0" d="M16,12.6l3.1,3.1c1.3-0.9,2.8-1.5,4.5-1.9V9.4C20.7,9.9,18.1,11,16,12.6z"/>
<path class="st0" d="M43.6,12.8L37,19.4c-1-1.5-2.2-2.8-3.7-3.7l6.6-6.6L43.6,12.8z"/>
<path class="st0" d="M28.8,39.2v9.3h-5.3v-9.3c0.9,0.2,1.7,0.3,2.6,0.3C27.1,39.5,27.9,39.4,28.8,39.2z"/>
<path class="st0" d="M13.2,26.5c0,0.9,0.1,1.8,0.3,2.6H4.2v-5.3h9.3C13.3,24.7,13.2,25.6,13.2,26.5z"/>
</svg>
