<?xml version="1.0" encoding="utf-8"?>
<!-- Generator: Adobe Illustrator 24.1.3, SVG Export Plug-In . SVG Version: 6.00 Build 0)  -->
<svg version="1.1" id="Layer_1" xmlns="http://www.w3.org/2000/svg" xmlns:xlink="http://www.w3.org/1999/xlink" x="0px" y="0px"
	 viewBox="0 0 53 53" style="enable-background:new 0 0 53 53;" xml:space="preserve">
<style type="text/css">
	.st0{fill:#008AFC;}
	.st1{fill:#218489;}
	.st2{fill:#09BBD8;}
	.st3{fill:#27A0AD;}
	.st4{fill:#00CDFC;}
	.st5{fill:#80E1FF;}
	.st6{fill:#005F93;}
</style>
<path class="st0" d="M26.5,23.6c-1.6,0-2.9,1.3-2.9,2.9c0,1.6,1.3,2.9,2.9,2.9c1.6,0,2.9-1.3,2.9-2.9C29.4,24.9,28.1,23.6,26.5,23.6
	z M26.5,27.5c-0.6,0-1-0.4-1-1c0-0.6,0.4-1,1-1c0.6,0,1,0.4,1,1C27.5,27.1,27.1,27.5,26.5,27.5z"/>
<path class="st1" d="M19.5,18.2c-0.5,0.4-1,0.9-1.4,1.4c-1.4,1.6-2.3,3.7-2.5,6h5.9c0.1-0.7,0.4-1.3,0.8-1.8c0.4-0.5,0.8-1,1.4-1.4
	c0.5-0.4,1.1-0.6,1.8-0.8v-5.9C23.3,15.9,21.2,16.8,19.5,18.2z"/>
<path class="st2" d="M29.3,30.6c-0.5,0.4-1.1,0.6-1.8,0.8c-0.3,0.1-0.6,0.1-1,0.1c-0.3,0-0.7,0-1-0.1c-0.1,0-0.2,0-0.3-0.1h0l-2,4.7
	l-0.3,0.7c0.8,0.3,1.7,0.5,2.6,0.6c0.3,0,0.6,0,1,0s0.6,0,1,0c2.3-0.2,4.3-1.1,6-2.5L29.3,30.6z"/>
<path class="st3" d="M23.5,30.5c-0.5-0.4-0.9-0.9-1.3-1.4c-0.3-0.5-0.5-1-0.6-1.5h-5.9c0.2,2,0.9,3.9,2.1,5.4c0.4,0.5,0.8,1,1.3,1.4
	c0.6,0.6,1.4,1.1,2.1,1.6l0.3-0.7L23.5,30.5C23.5,30.5,23.5,30.5,23.5,30.5z"/>
<path class="st4" d="M37.3,25.5c-0.2-2-0.9-3.9-2.1-5.4L30.8,24c0.3,0.5,0.5,1,0.6,1.5c0.1,0.3,0.1,0.6,0.1,1c0,0.3,0,0.7-0.1,1
	c-0.1,0.7-0.4,1.3-0.8,1.8l4.2,4.2c1.4-1.6,2.3-3.7,2.5-6c0-0.3,0-0.6,0-1C37.3,26.2,37.3,25.9,37.3,25.5z"/>
<path class="st5" d="M27.5,15.7v5.9c0.8,0.1,1.5,0.5,2.1,0.9l4.4-3.9C32.2,17,30,15.9,27.5,15.7z"/>
<path class="st6" d="M29.1,4.5v9.3c-0.8-0.2-1.7-0.3-2.6-0.3c-0.9,0-1.8,0.1-2.6,0.3V4.5H29.1z"/>
<path class="st6" d="M48.5,23.9v5.3h-9.3c0.2-0.8,0.3-1.7,0.3-2.6c0-0.9-0.1-1.8-0.3-2.6H48.5z"/>
<path class="st6" d="M19.4,15.7c-1.5,1-2.8,2.2-3.7,3.7l-6.6-6.6l3.7-3.7L19.4,15.7z"/>
<path class="st6" d="M43.9,40.2l-3.7,3.7l-6.6-6.6c1.5-1,2.8-2.2,3.7-3.7L43.9,40.2z"/>
<path class="st6" d="M19.4,37.3l-6.6,6.6l-3.7-3.7l6.6-6.6C16.6,35.1,17.9,36.4,19.4,37.3z"/>
<path class="st6" d="M12.6,16.3c-1.6,2.2-2.7,4.8-3.1,7.6h4.4c0.3-1.6,1-3.1,1.9-4.5L12.6,16.3z"/>
<path class="st6" d="M19.4,37.3l-3.1,3.1c2.2,1.6,4.8,2.7,7.6,3.1v-4.4C22.2,38.9,20.7,38.2,19.4,37.3z"/>
<path class="st6" d="M39.2,29.1c-0.3,1.6-1,3.1-1.9,4.5l3.1,3.1c1.6-2.2,2.7-4.8,3.1-7.6H39.2z"/>
<path class="st6" d="M40.4,16.3l-3.1,3.1c0.9,1.3,1.5,2.8,1.9,4.5h4.4C43.1,21.1,42,18.5,40.4,16.3z"/>
<path class="st6" d="M29.1,13.8c1.6,0.3,3.1,1,4.5,1.9l3.1-3.1c-2.2-1.6-4.8-2.7-7.6-3.1V13.8z"/>
<path class="st6" d="M33.6,37.3c-1.3,0.9-2.8,1.5-4.5,1.9v4.4c2.8-0.4,5.4-1.5,7.6-3.1L33.6,37.3z"/>
<path class="st6" d="M13.8,29.1H9.4c0.4,2.8,1.5,5.4,3.1,7.6l3.1-3.1C14.8,32.3,14.1,30.8,13.8,29.1z"/>
<path class="st6" d="M16.3,12.6l3.1,3.1c1.3-0.9,2.8-1.5,4.5-1.9V9.4C21.1,9.9,18.5,11,16.3,12.6z"/>
<path class="st6" d="M43.9,12.8l-6.6,6.6c-1-1.5-2.2-2.8-3.7-3.7l6.6-6.6L43.9,12.8z"/>
<path class="st6" d="M29.1,39.2v9.3h-5.3v-9.3c0.9,0.2,1.7,0.3,2.6,0.3C27.4,39.5,28.3,39.4,29.1,39.2z"/>
<path class="st6" d="M13.5,26.5c0,0.9,0.1,1.8,0.3,2.6H4.5v-5.3h9.3C13.6,24.7,13.5,25.6,13.5,26.5z"/>
</svg>
