<?xml version="1.0" encoding="utf-8"?>
<!-- Generator: Adobe Illustrator 24.1.2, SVG Export Plug-In . SVG Version: 6.00 Build 0)  -->
<svg version="1.1" id="Layer_1" xmlns="http://www.w3.org/2000/svg" xmlns:xlink="http://www.w3.org/1999/xlink" x="0px" y="0px"
	 viewBox="0 0 32 32" style="enable-background:new 0 0 32 32;" xml:space="preserve">
<style type="text/css">
	.st0{fill:#FFFFFF;}
</style>
<path class="st0" d="M15,4v10.1l-2.3-2.3l-1.4,1.4l4,4l0.7,0.7l0.7-0.7l4-4l-1.4-1.4L17,14.1V4H15z M8.3,8L8,8.8l-3,11l0,0.1V27h22
	v-7.1l0-0.1l-3-11L23.8,8H19v2h3.3l2.4,9H7.3l2.4-9H13V8H8.3z M7,21h18v4H7V21z M22,22c-0.6,0-1,0.4-1,1s0.4,1,1,1s1-0.4,1-1
	S22.6,22,22,22z"/>
</svg>
