<?xml version="1.0" encoding="utf-8"?>
<!-- Generator: Adobe Illustrator 24.1.3, SVG Export Plug-In . SVG Version: 6.00 Build 0)  -->
<svg version="1.1" id="Layer_1" xmlns="http://www.w3.org/2000/svg" xmlns:xlink="http://www.w3.org/1999/xlink" x="0px" y="0px"
	 viewBox="0 0 512 512" style="enable-background:new 0 0 512 512;" xml:space="preserve">
<style type="text/css">
	.st0{fill:#FFFFFF;}
</style>
<path class="st0" d="M471.5,107L366.9,4.3c-2.8-2.8-6.6-4.3-10.5-4.3H92C61.1,0,36,25.1,36,56V456c0,30.9,25.1,56,56,56h328.1
	c30.9,0,56-25.1,56-56V117.7C476,113.7,474.4,109.9,471.5,107z M371.4,50.8l52.9,52h-48.2c-2.6,0-4.8-2.1-4.8-4.8V50.8z M420.1,482
	H92c-14.3,0-26-11.6-26-26V56c0-14.3,11.6-26,26-26h249.5v68c0,19.2,15.6,34.8,34.8,34.8H446V456C446,470.4,434.4,482,420.1,482z"/>
<path class="st0" d="M360.1,238H148.7c-8.3,0-15,6.7-15,15s6.7,15,15,15h211.5c8.3,0,15-6.7,15-15S368.4,238,360.1,238z"/>
<path class="st0" d="M148.7,328h172.4c8.3,0,15-6.7,15-15s-6.7-15-15-15H148.7c-8.3,0-15,6.7-15,15S140.4,328,148.7,328z"/>
<path class="st0" d="M341.9,358H148.7c-8.3,0-15,6.7-15,15s6.7,15,15,15h193.2c8.3,0,15-6.7,15-15S350.2,358,341.9,358z"/>
</svg>
