<?xml version="1.0" encoding="utf-8"?>
<!-- Generator: Adobe Illustrator 24.1.3, SVG Export Plug-In . SVG Version: 6.00 Build 0)  -->
<svg version="1.1" id="Layer_1" xmlns="http://www.w3.org/2000/svg" xmlns:xlink="http://www.w3.org/1999/xlink" x="0px" y="0px"
	 viewBox="0 0 500 500" style="fill:#008AFC;enable-background:new 0 0 500 500;" xml:space="preserve">
<path style="fill:#008AFC;" d="M249.5,116.8c33.9,0,65.8,13.2,89.8,37.2s37.2,55.9,37.2,89.8s-13.2,65.8-37.2,89.8s-55.9,37.2-89.8,37.2
	s-65.8-13.2-89.8-37.2s-37.2-55.9-37.2-89.8s13.2-65.8,37.2-89.8S215.6,116.8,249.5,116.8 M249.5,86.8c-86.7,0-157,70.3-157,157
	s70.3,157,157,157s157-70.3,157-157S336.2,86.8,249.5,86.8L249.5,86.8z"/>
<g>
	<g>
		<rect x="234.5" y="38.8" width="30" height="50"/>
	</g>
	<g>
		<rect x="234.5" y="398.8" width="30" height="50"/>
	</g>
</g>
<g>
	<g>
		<rect x="404.5" y="228.8" width="50" height="30"/>
	</g>
	<g>
		<rect x="44.5" y="228.8" width="50" height="30"/>
	</g>
</g>
<path style="fill:#008AFC;" d="M290.5,301.3h-82.1c0.1-12.9,6.2-24.3,15.5-31.8c7,5.5,15.9,8.9,25.5,8.9s18.5-3.3,25.5-8.9
	C284.4,276.9,290.4,288.4,290.5,301.3z"/>
<path style="fill:#008AFC;" d="M290.5,227.3c0,13-6.1,24.7-15.6,32.2c-7,5.5-15.9,8.9-25.5,8.9S231,265,224,259.5c-9.5-7.5-15.6-19.1-15.6-32.2
	c0-22.7,18.4-41,41-41C272.2,186.3,290.5,204.6,290.5,227.3z"/>
<path style="fill:#008AFC;" d="M202.5,301.3h-56.6c0.1-8.4,3.9-16,9.8-21.1c5,4.3,11.4,6.9,18.5,6.9c7.1,0,13.5-2.6,18.5-6.9
	C198.6,285.3,202.4,292.8,202.5,301.3z"/>
<path style="fill:#008AFC;" d="M202.5,248.7c0,8.5-3.8,16.2-9.8,21.4c-5,4.3-11.4,6.9-18.5,6.9c-7.1,0-13.5-2.6-18.5-6.9c-6-5.2-9.8-12.9-9.8-21.4
	c0-15.6,12.7-28.3,28.3-28.3C189.8,220.4,202.5,233.1,202.5,248.7z"/>
<path style="fill:#008AFC;" d="M353.1,301.3h-56.6c0.1-8.4,3.9-16,9.8-21.1c5,4.3,11.4,6.9,18.5,6.9s13.5-2.6,18.5-6.9C349.3,285.3,353,292.8,353.1,301.3z
	"/>
<path style="fill:#008AFC;" d="M353.1,248.7c0,8.5-3.8,16.2-9.8,21.4c-5,4.3-11.4,6.9-18.5,6.9s-13.5-2.6-18.5-6.9c-6-5.2-9.8-12.9-9.8-21.4
	c0-15.6,12.7-28.3,28.3-28.3C340.5,220.4,353.1,233.1,353.1,248.7z"/>
</svg>
