<?xml version="1.0" encoding="utf-8"?>
<!-- Generator: Adobe Illustrator 24.1.2, SVG Export Plug-In . SVG Version: 6.00 Build 0)  -->
<svg version="1.1" id="Layer_1" xmlns="http://www.w3.org/2000/svg" xmlns:xlink="http://www.w3.org/1999/xlink" x="0px" y="0px"
	 viewBox="0 0 512 512" style="enable-background:new 0 0 512 512;" xml:space="preserve">
<style type="text/css">
	.st0{fill:#FFFFFF;}
</style>
<path class="st0" d="M264.8,141.6l-8-4L200,172.8V208l32,17.6v-20.8c0-5.6,3.2-10.4,7.2-13.6L296,156c4.8-3.2,10.4-3.2,16-0.8l8,4
	l40.8-25.6v-36l-80.8,44C275.2,143.2,269.6,144,264.8,141.6L264.8,141.6z"/>
<path class="st0" d="M208.8,109.6l-8-4L144,140.8V176l40,22.4V172c0-5.6,3.2-10.4,7.2-13.6l56.8-35.2c4.8-3.2,10.4-3.2,16-0.8l8,4
	l24-12.8v-44l-72.8,39.2C219.2,111.2,213.6,112,208.8,109.6z"/>
<path class="st0" d="M128,140.8c0-5.6,3.2-10.4,7.2-13.6L192,92c4.8-3.2,10.4-3.2,16-0.8l8,4l76-41.6l-32-18.4c-2.4-1.6-5.6-1.6-8,0
	L72,136l56,31.2V140.8z"/>
<path class="st0" d="M312,64.8v40l36.8-20L312,64.8z"/>
<path class="st0" d="M64,149.6v29.6l34.4,17.6c8,4,13.6,12,13.6,21.6v7.2c12.8,4.8,19.2,18.4,14.4,30.4
	c-4.8,12.8-18.4,19.2-30.4,14.4S76.8,252,81.6,240c2.4-7.2,8-12,14.4-14.4v-7.2c0-3.2-1.6-5.6-4.8-7.2L64,196.8v169.6
	c0,3.2,1.6,5.6,4,7.2l180,100.8v-21.6L172.8,412c-8-4-12.8-12-12.8-20.8v-29.6c0-3.2-1.6-5.6-4-7.2l-28-16.8
	c-10.4,10.4-26.4,9.6-36.8,0s-9.6-26.4,0-36.8s26.4-9.6,36.8,0c5.6,5.6,8.8,14.4,7.2,22.4l28.8,17.6c7.2,4,12,12,12,20.8v29.6
	c0,3.2,1.6,5.6,4,7.2l68,36.8v-77.6l-75.2-40.8c-8-4-12.8-12-12.8-20.8v-16c-12.8-4.8-19.2-18.4-14.4-30.4
	c4.8-12.8,18.4-19.2,30.4-14.4c12.8,4.8,19.2,18.4,14.4,30.4c-2.4,7.2-8,12-14.4,14.4v16c0,3.2,1.6,5.6,4,7.2l68,36.8v-88
	c-1.6,0-2.4-0.8-4-1.6L64,149.6z"/>
<path class="st0" d="M376,100v23.2l19.2-12L376,100z"/>
<path class="st0" d="M424,127.2v17.6l16-8.8L424,127.2z"/>
<circle class="st0" cx="304" cy="280" r="8"/>
<path class="st0" d="M448,307.2V149.6L268,250.4c-0.8,0.8-2.4,0.8-4,1.6v39.2l16-8c0-0.8,0-1.6,0-3.2c0-13.6,10.4-24,24-24
	s24,10.4,24,24s-10.4,24-24,24c-6.4,0-12-2.4-16.8-6.4L264,308.8v77.6l68-36.8c2.4-1.6,4-4,4-7.2v-28.8c0-8.8,4.8-17.6,13.6-21.6
	l35.2-17.6c0-0.8,0-1.6,0-3.2c0-13.6,10.4-24,24-24s24,10.4,24,24s-10.4,24-24,24c-6.4,0-12-2.4-16.8-6.4l-35.2,17.6
	c-2.4,1.6-4.8,4-4.8,7.2v28.8c0,8.8-4.8,16.8-12.8,20.8L264,404.8v69.6l180-100.8c2.4-1.6,4-4,4-7.2v-41.6l-32,16v3.2
	c0,13.6-10.4,24-24,24s-24-10.4-24-24s10.4-24,24-24c6.4,0,12,2.4,16.8,6.4L448,307.2z"/>
<circle class="st0" cx="168" cy="256" r="8"/>
<circle class="st0" cx="408" cy="272" r="8"/>
<circle class="st0" cx="392" cy="344" r="8"/>
<circle class="st0" cx="112" cy="320" r="8"/>
<circle class="st0" cx="104" cy="248" r="8"/>
<path class="st0" d="M408,121.6l-80,51.2c-4.8,3.2-10.4,3.2-16,0.8l-8-4l-56,35.2v29.6l4,2.4c2.4,1.6,5.6,1.6,8,0l148-83.2V121.6z"
	/>
</svg>
