<?xml version="1.0" encoding="utf-8"?>
<!-- Generator: Adobe Illustrator 26.5.3, SVG Export Plug-In . SVG Version: 6.00 Build 0)  -->
<svg version="1.1" id="Layer_1" xmlns="http://www.w3.org/2000/svg" xmlns:xlink="http://www.w3.org/1999/xlink" x="0px" y="0px"
	 viewBox="0 0 1000 1000" style="enable-background:new 0 0 1000 1000;" xml:space="preserve">
<style type="text/css">
	.st0{fill:#09BBD8;}
</style>
<g>
	<g transform="translate(0.000000,511.000000) scale(0.100000,-0.100000)">
		<path class="st0" d="M4771.1,4522c-484.4-130.2-785.1-633.8-662.5-1104.8c80.4-312.1,321.7-566.8,622.3-656.8l114.9-34.5V1341.5
			V-42.9h-536.1h-536.1v306.4v306.4h-383h-383V882v312.1l114.9,34.5c425.1,128.3,704.6,568.7,637.6,1007.2
			c-57.4,363.8-329.3,662.5-689.3,756.3c-476.8,124.5-978.5-180-1106.7-674c-118.7-455.7,164.7-951.7,622.3-1089.5l114.9-34.5V728.8
			V263.5h383h383V110.3V-42.9h-411.7c-413.6,0-413.6,0-459.5-47.9l-47.9-46v-720v-718h-689.3h-689.3v618.5v618.5l114.9,34.5
			c222.1,67,444.2,250.8,547.6,455.7c183.8,361.9,116.8,771.7-172.3,1060.8c-361.9,361.9-905.7,367.6-1277.2,13.4
			C89.5,947.1,16.7,516.3,200.5,152.4C303.9-52.4,526-236.3,748.1-303.3L863-337.8v-771.7v-771.7h842.5H2548V-2647v-765.9h930.6
			h932.5l-9.6-128.3c-11.5-166.6-61.3-262.3-201-386.8l-109.1-97.6H3829c-298.7,0-335.1-15.3-354.2-137.9
			c-9.6-57.4-3.8-78.5,36.4-118.7l49.8-49.8h1434.2c1397.8,0,1434.2,0,1472.5,38.3c55.5,51.7,70.8,107.2,44,170.4
			c-32.5,82.3-91.9,97.6-365.7,97.6h-247l-130.2,130.2c-141.7,137.9-176.2,216.4-176.2,394.5v88.1h928.7H7450v765.9v765.9h842.5
			H9135v771.7v771.7l114.9,34.5c300.6,90,541.9,344.7,622.3,656.8c124.5,476.8-180,978.4-670.2,1106.7
			c-654.9,170.4-1281-453.8-1110.6-1106.7c80.4-312.1,321.7-566.8,622.3-656.8l114.9-34.5v-618.5v-618.5h-689.3H7450v718v720
			l-47.9,46c-46,47.9-46,47.9-459.6,47.9h-411.7v153.2v153.2h383h383v465.3v465.3l114.9,34.5c222.1,67,444.2,250.8,547.6,455.7
			c268.1,526.6-21.1,1156.5-599.3,1307.8c-476.8,124.5-978.4-180-1106.7-674c-118.7-455.7,164.7-951.7,622.3-1089.5l114.9-34.5V882
			V569.9h-383h-383V263.5V-42.9h-536.1h-536.1v1384.4v1384.4l114.9,34.5c457.6,137.9,741,633.8,622.3,1089.5
			C5761.1,4345.8,5251.7,4652.2,4771.1,4522z M5257.5,4186.9c120.6-57.4,235.5-172.3,296.8-294.9c67-137.9,67-379.1,0-517
			c-59.4-122.5-174.3-237.4-296.8-296.8c-136-67-377.2-67-517,0c-497.8,241.3-455.7,947.8,67,1137.4
			C4928.1,4259.7,5133,4246.3,5257.5,4186.9z M3112.9,2655.1c120.6-57.4,237.4-172.3,296.8-294.9c65.1-137.9,65.1-379.1,0-517
			c-59.4-122.5-174.2-237.4-296.8-296.8c-78.5-38.3-124.5-45.9-258.5-45.9s-180,7.7-258.5,45.9c-122.5,59.4-237.4,174.2-296.8,296.8
			c-67,135.9-67,377.2,0,517c80.4,164.7,235.5,291.1,411.7,337C2814.2,2724,3009.5,2702.9,3112.9,2655.1z M7402,2655.1
			c120.6-57.4,235.5-172.3,296.8-294.9c67-137.9,67-379.1,0-517c-59.3-122.5-174.2-237.4-296.8-296.8c-137.9-67-379.1-67-517,0
			c-497.9,243.2-455.7,947.8,67,1137.4C7072.7,2727.8,7277.6,2714.4,7402,2655.1z M1274.7,1123.2
			c120.6-57.5,237.4-172.3,296.8-294.9c67-139.8,67-381,0-517c-59.4-122.5-174.2-237.4-296.8-296.8c-137.9-67-379.1-67-517,0
			C259.9,257.8,302,962.4,824.7,1152C945.4,1196,1150.2,1182.6,1274.7,1123.2z M9240.2,1123.2c120.6-57.5,235.5-172.3,296.8-294.9
			c67-137.9,67-379.1,0-517c-59.4-122.5-174.2-237.4-296.8-296.8c-137.9-67-379.1-67-517,0c-199.2,97.7-331.3,291-350.4,511.3
			c-21.1,275.7,158.9,543.8,425.1,630C8914.7,1194.1,9123.4,1178.8,9240.2,1123.2z M7143.5-1421.5v-1072.3H4999H2854.4v1072.3
			v1072.3H4999h2144.6v-1072.3H7143.5z M7143.5-2953.3v-153.2H4999H2854.4v153.2v153.2H4999h2144.6v-153.2H7143.5z M5293.8-3455
			c5.8-24.9,11.5-91.9,11.5-149.4c0-162.8,30.6-243.2,128.3-337l90-84.3H4999h-524.6l90,84.3c99.6,95.7,128.3,174.2,128.3,350.4
			c0,187.6-17.2,178.1,306.4,178.1C5276.6-3412.9,5282.4-3412.9,5293.8-3455z"/>
	</g>
</g>
</svg>
