<?xml version="1.0" encoding="iso-8859-1"?>
<!-- Uploaded to: SVG Repo, www.svgrepo.com, Generator: SVG Repo Mixer Tools -->
<svg height="800px" width="800px" version="1.1" id="Capa_1" xmlns="http://www.w3.org/2000/svg" xmlns:xlink="http://www.w3.org/1999/xlink" 
	 viewBox="0 0 15.801 15.801" xml:space="preserve">
<g>
	<path style="fill:#030104;" d="M14.095,4.017c0,0-0.382-0.049-0.547-0.071c-0.157-0.022-0.384-0.052-0.655-0.087
		c-0.471-0.06-1.081-0.136-1.708-0.215l0.205-2.179L8.314,1.347L8.121,3.065L6.779,1.444L6.619,1.62
		C6.355,1.911,5.301,3.07,4.744,3.702L2.314,4.04L1.881,4.134L0,7.456l1.985,0.562v4.443l6.371,1.961v0.031l0.049-0.016l0.05,0.016
		v-0.031l6.369-1.961V7.41l0.977-0.277L14.095,4.017z M6.764,2.077L8.425,4.08l0.258-2.304l2.253,0.086l-0.185,1.976L7.868,4.505
		L4.969,4.072C5.358,3.629,6.159,2.743,6.764,2.077z M0.66,7.179L2.115,4.52l0.216-0.03l5.363,0.532L5.938,8.671L0.66,7.179z
		 M8.33,4.969L8.33,4.969l0.004,0.006L8.33,4.969z M14.378,12.132l-5.806,1.715v-8.23l0.535,1.229l0.97,1.988l4.301-1.216V12.132z
		 M10.464,8.178L8.916,5.21l4.923-0.731l1.302,2.375L10.464,8.178z"/>
</g>
</svg>