<?xml version="1.0" encoding="iso-8859-1"?>
<!-- Uploaded to: SVG Repo, www.svgrepo.com, Generator: SVG Repo Mixer Tools -->
<!DOCTYPE svg PUBLIC "-//W3C//DTD SVG 1.1//EN" "http://www.w3.org/Graphics/SVG/1.1/DTD/svg11.dtd">
<svg height="800px" width="800px" version="1.1" id="Capa_1" xmlns="http://www.w3.org/2000/svg" xmlns:xlink="http://www.w3.org/1999/xlink" 
	 viewBox="0 0 193 193" xml:space="preserve">
<path style="fill:#000002;" d="M150.14,138.849c-0.006,0-0.011,0-0.017,0H2.5c-1.381,0-2.5-1.119-2.5-2.5V93.934
	c0-0.066,0.001-0.133,0.006-0.199c0.033-0.487,0.207-0.937,0.479-1.308c0.104-0.143,0.226-0.275,0.361-0.395
	c0.002-0.002,0.002-0.002,0.004-0.004c0.037-0.032,0.074-0.063,0.112-0.093l46.904-37.241c0.442-0.351,0.99-0.542,1.555-0.542
	h141.067c0.12-0.006,0.223,0.007,0.333,0.021l0,0c0.005,0,0.009,0.002,0.012,0.002h0.001c0.305,0.041,0.596,0.138,0.86,0.281
	c0.001,0.001,0.002,0.001,0.003,0.002c0,0,0,0,0.001,0c0.215,0.118,0.41,0.265,0.578,0.435c0.187,0.189,0.345,0.409,0.466,0.654
	c0.093,0.189,0.163,0.391,0.206,0.6c0,0.001,0,0.002,0,0.002c0,0.001,0,0.002,0,0.003c0.036,0.173,0.052,0.349,0.051,0.522v11.452
	c0,0.005,0,0.01,0,0.014v10.562c0,0.005,0,0.01,0,0.014v10.667c0,0.005,0,0.01,0,0.014v9.777c0,0.698-0.292,1.365-0.806,1.839
	l-40.359,37.176c-0.002,0.002-0.005,0.004-0.007,0.007h0c-0.003,0.003-0.006,0.002-0.008,0.008c0,0-0.001,0-0.001,0.001
	c-0.42,0.38-0.969,0.619-1.574,0.644C150.209,138.848,150.175,138.849,150.14,138.849z M102.76,133.849h44.88v-5.358h-44.88V133.849
	z M53.839,133.849H97.76V96.408H53.839V133.849z M5,133.849h43.839v-5.358H5V133.849z M152.641,127.739v2.908L188,98.077V95.1
	L152.641,127.739z M102.76,123.491h44.88v-6.138h-44.88V123.491z M5,123.491h43.839v-6.138H5V123.491z M152.641,117.058v3.876
	L188,88.295v-3.876L152.641,117.058z M102.76,112.353h44.88v-5.699h-44.88V112.353z M5,112.353h43.839v-5.699H5V112.353z
	 M152.641,106.483v3.771L188,77.615v-3.771L152.641,106.483z M102.76,101.654h44.88v-5.246h-44.88V101.654z M5,101.654h43.839
	v-5.246H5V101.654z M152.641,95.002v4.676L188,67.039v-4.677L152.641,95.002z M106.641,91.408h42.522l34.943-32.255h-42.625
	l-4.898,4.535c1.644,0.933,3.282,2.354,3.882,4.455c0.802,2.806-0.452,5.814-3.725,8.944c-7.998,7.646-20.262,8.517-23.922,8.602
	L106.641,91.408z M58.267,91.408h41.014l10.837-10.033c0.01-0.01,0.02-0.019,0.03-0.028l23.972-22.193H97.133l-9.779,8.115
	c-0.026,0.022-0.052,0.044-0.079,0.065L58.267,91.408z M9.669,91.408h40.768l8.944-7.423c-1.478-0.889-2.861-2.201-3.31-4.1
	c-1.055-4.466,3.825-8.195,5.429-9.421c9.792-7.482,20.038-7.773,23.388-7.647l4.416-3.664H50.293L9.669,91.408z M78.2,68.368
	c-3.893,0.738-8.867,2.403-13.664,6.069c-3.091,2.363-3.706,3.846-3.599,4.299c0.133,0.564,1.406,1.286,2.699,1.718L78.2,68.368z
	 M132.618,67.358l-13.677,12.663c4.493-0.815,10.223-2.608,14.344-6.548c1.721-1.646,2.608-3.123,2.374-3.954
	C135.418,68.669,133.982,67.847,132.618,67.358z"/>
</svg>